<?xml version="1.0" encoding="UTF-8"?>
<svg width="44px" height="44px" viewBox="0 0 44 44" version="1.1" xmlns="http://www.w3.org/2000/svg" xmlns:xlink="http://www.w3.org/1999/xlink">
    <!-- Generator: Sketch 63 (92445) - https://sketch.com -->
    <title>头像/女 copy</title>
    <desc>Created with Sketch.</desc>
    <g id="Page-1" stroke="none" stroke-width="1" fill="none" fill-rule="evenodd">
        <g id="规范" transform="translate(-435.000000, -1835.000000)">
            <g id="Group-3" transform="translate(435.000000, 1835.000000)">
                <g id="头像/女-copy">
                    <g id="头像/男">
                        <path d="M36.2256038,37.3866267 C35.8042241,36.6720689 34.8556365,35.921634 33.3798409,35.1353219 C32.3110374,34.5658574 30.6916451,34.3615488 28.7730111,33.5561466 C28.0424104,33.2494558 27.0326129,32.9099766 26.5220411,32.101632 C26.0114693,31.2932875 26.0114693,27.8246174 26.0594018,27.3869987 C26.0807405,27.1921791 26.657845,27.0566187 27.2378765,25.8966884 C27.4302605,25.5119645 27.6958415,24.6348299 28.0346197,23.2652845 C29.0510237,22.2785506 29.6123787,21.4506698 29.7186849,20.7816421 C29.824991,20.1126145 29.5097664,19.3914966 28.7730111,18.6182885 C29.536627,14.6167265 29.7756869,12.0618433 29.4901908,10.9536389 C29.0619466,9.29133234 27.3375622,8.61350922 26.0594018,8.01067566 C25.3833273,7.69181081 23.7667595,6.54123157 21.7358163,6.4133997 C19.9271367,6.29955759 17.743653,7.1118354 16.3183791,8.26357988 C14.3012487,9.89359569 13.7209552,13.3451652 14.5774986,18.6182885 C14.0075124,19.7414593 13.7953046,20.6101306 13.9408753,21.2243024 C14.1592314,22.1455601 15.2454951,22.2480583 15.5175533,22.5844369 C15.7896115,22.9208154 15.7896115,24.8772125 16.3183791,25.8966884 C16.8471468,26.9161644 17.4531982,26.4072204 17.6253403,27.3869987 C17.7974824,28.366777 18.1806218,30.1016345 17.6253403,31.4768713 C17.2551526,32.3936959 16.5525569,33.0867877 15.5175533,33.5561466 L7.28569682,36.99817 C11.3620003,41.2262732 16.2667681,43.3403248 22,43.3403248 C27.7332319,43.3403248 32.4750999,41.3557588 36.2256038,37.3866267 Z" id="Path-2" fill="#6497FF"></path>
                        <path d="M36.2256038,37.3866267 C35.8042241,36.6720689 34.8556365,35.921634 33.3798409,35.1353219 C32.3110374,34.5658574 30.6916451,34.3615488 28.7730111,33.5561466 C28.4243411,33.4097823 26.2364212,35.8147607 21.8584406,35.877948 C18.939787,35.9200728 16.8261578,35.146139 15.5175533,33.5561466 L7.28569682,36.99817 C11.3620003,41.2262732 16.2667681,43.3403248 22,43.3403248 C27.7332319,43.3403248 32.4750999,41.3557588 36.2256038,37.3866267 Z" id="Path-2-Copy-4" fill="#004DEC"></path>
                        <path d="M26.0910944,29.7685387 C26.0222135,28.6882355 26.0341629,27.6174275 26.0594018,27.3869987 C26.0736276,27.257119 23.2622738,28.6204099 17.6253403,31.4768713 C23.3104659,30.985552 26.1323839,30.4161078 26.0910944,29.7685387 Z" id="Path-2-Copy-3" fill="#4984FF"></path>
                        <path d="M26.741015,26.6817571 C26.8970116,26.490273 27.0673175,26.2377674 27.2378765,25.8966884 C27.4302605,25.5119645 27.6958415,24.6348299 28.0346197,23.2652845 L28.7730111,18.6182885 C28.9575902,17.6182871 29.0861282,16.8955792 29.1586251,16.4501648 C29.3879648,15.0411228 26.1052271,11.2579026 22.22499,11.0037175 C18.473278,10.7579517 14.1212178,13.9860591 14.2448979,15.810171 C14.2842369,16.3903681 14.3951038,17.3264072 14.5774986,18.6182885 C15.0228296,21.038135 15.3361812,22.3601845 15.5175533,22.5844369 C15.7896115,22.9208154 15.7896115,24.8772125 16.3183791,25.8966884 C16.6803442,26.5945652 17.0785245,26.5762224 17.3489403,26.8094943 C17.4107514,26.8628151 19.9581926,28.8046606 22.22499,28.8178394 C24.5281794,28.8310906 26.552268,26.913442 26.741015,26.6817571 Z" id="Path-2-Copy" fill="#BED3FF"></path>
                        <path d="M29.2986671,15.545467 C29.6303593,13.2761486 29.6942005,11.7455392 29.4901908,10.9536389 C29.0619466,9.29133234 27.3375622,8.61350922 26.0594018,8.01067566 C25.3833273,7.69181081 23.7667595,6.54123157 21.7358163,6.4133997 C19.9271367,6.29955759 17.743653,7.1118354 16.3183791,8.26357988 C14.7225299,9.55316403 14.0260193,11.982887 14.2288472,15.5527487 C14.2403549,15.7552888 17.0712077,15.9134646 19.324235,16.3199687 C22.3020892,16.8572502 25.0018562,17.6367511 26.0594018,17.6367511 C27.9170804,17.6367511 29.2322898,15.9995971 29.2986671,15.545467 Z" id="Path-2-Copy-2" fill="#3476FE"></path>
                        <circle id="Oval-Copy" stroke="#3476FE" stroke-width="3.78125" cx="22" cy="22" r="20.109375"></circle>
                    </g>
                </g>
            </g>
        </g>
    </g>
</svg>