<?xml version="1.0" encoding="UTF-8"?>
<svg width="32px" height="32px" viewBox="0 0 32 32" version="1.1" xmlns="http://www.w3.org/2000/svg" xmlns:xlink="http://www.w3.org/1999/xlink">
    <!-- Generator: Sketch 63 (92445) - https://sketch.com -->
    <title>头像/女</title>
    <desc>Created with Sketch.</desc>
    <g id="Page-1" stroke="none" stroke-width="1" fill="none" fill-rule="evenodd">
        <g id="2.2-联系人" transform="translate(-44.000000, -361.000000)">
            <g id="Group-5" transform="translate(0.000000, 156.000000)">
                <g id="Group-2" transform="translate(0.000000, 50.000000)">
                    <g id="联系人列表-copy-3" transform="translate(0.000000, 147.000000)">
                        <g id="联系人列表">
                            <g id="Group" transform="translate(16.000000, 8.000000)">
                                <g id="Group-2" transform="translate(28.000000, 0.000000)">
                                    <g id="头像/男">
                                        <g id="头像/女">
                                            <path d="M8.88044576,18.6740283 C8.72638397,19.3843976 8.02894447,19.3144134 8.29831693,19.9473626 C8.5676894,20.5803118 8.81567213,20.4782957 9.79328565,20.8189442 C10.7708992,21.1595927 12.4798285,21.0099737 12.8247392,21.5245901 C13.16965,22.0392065 12.7615152,23.2070312 11.7584304,23.9359527 C10.7553455,24.6648742 9.70179201,24.26803 8.29831693,25.0596199 C7.36266688,25.5873465 6.43237817,26.1987969 5.50745081,26.893971 C8.45275438,29.9950692 11.7603807,31.5665377 15.4303298,31.6083764 C19.1002789,31.6502152 22.8007616,30.1586417 26.5317779,27.1336559 C25.9064263,26.6994183 25.1900791,26.2218965 24.3827362,25.7010904 C23.171722,24.9198813 20.1028436,24.0274321 19.3696021,23.4732711 C18.6363606,22.9191102 18.3956412,21.9948057 18.8565738,21.5245901 C19.1638621,21.2111129 20.0454575,21.0543744 21.5013597,21.0543744 C22.8845166,20.716929 23.663181,20.347925 23.8373531,19.9473626 C24.0986112,19.346519 23.1521509,18.4097157 23.0525429,17.4869497 C22.5195318,12.5491528 22.4678746,8.85644105 21.9245152,7.38807824 C21.2796137,5.64531062 20.0594854,4.81142021 18.2641304,4.88640701 C15.0782483,3.63907574 12.7441889,4.10434902 11.2619522,6.28222687 C9.03859709,9.54904365 9.03450756,17.9636591 8.88044576,18.6740283 Z" id="Path-3" fill="#6497FF"></path>
                                            <path d="M11.7584304,23.9359527 C13.2866042,24.1341105 14.6983834,24.1341105 15.9937679,23.9359527 C17.9368448,23.6387161 18.8170407,22.8517951 18.7633287,22.7367491 C18.5544993,22.2894558 18.5685772,21.8183868 18.8565738,21.5245901 C19.0400823,21.3373857 17.7832183,21.1567426 16.0599327,21.7664428 C15.2850076,22.0406121 13.8511735,22.763782 11.7584304,23.9359527 Z" id="Path-3-Copy-4" fill="#4984FF"></path>
                                            <path d="M8.88044576,18.6740283 C8.72638397,19.3843976 8.02894447,19.3144134 8.29831693,19.9473626 C8.5676894,20.5803118 8.81567213,20.4782957 9.79328565,20.8189442 C10.7708992,21.1595927 12.4798285,21.0099737 12.8247392,21.5245901 C13.16965,22.0392065 18.3956412,21.9948057 18.8565738,21.5245901 C19.1638621,21.2111129 20.0454575,21.0543744 21.5013597,21.0543744 C22.8845166,20.716929 23.663181,20.347925 23.8373531,19.9473626 C24.0986112,19.346519 23.1521509,18.4097157 23.0525429,17.4869497 C22.5195318,12.5491528 22.4678746,8.85644105 21.9245152,7.38807824 C21.2796137,5.64531062 20.0594854,4.81142021 18.2641304,4.88640701 C15.0782483,3.63907574 12.7441889,4.10434902 11.2619522,6.28222687 C9.03859709,9.54904365 9.03450756,17.9636591 8.88044576,18.6740283 Z" id="Path-3-Copy-2" fill="#004DEC"></path>
                                            <path d="M11.7584304,23.9359527 C10.7553455,24.6648742 9.70179201,24.26803 8.29831693,25.0596199 C7.36266688,25.5873465 6.43237817,26.1987969 5.50745081,26.893971 C8.45275438,29.9950692 11.7603807,31.5665377 15.4303298,31.6083764 C19.1002789,31.6502152 22.8007616,30.1586417 26.5317779,27.1336559 C25.9064263,26.6994183 25.1900791,26.2218965 24.3827362,25.7010904 C23.171722,24.9198813 20.1028436,24.0274321 19.3696021,23.4732711 C18.9927568,23.1884632 17.1640288,24.9540226 15.4303298,25.0596199 C13.7907087,25.1594871 12.2459854,23.5816563 11.7584304,23.9359527 Z" id="Path-3-Copy-3" fill="#3476FE"></path>
                                            <path d="M16.0599327,21.5457871 C17.3645533,21.5457871 17.8585797,20.9399234 19.0390862,19.0652749 C20.2195927,17.1906265 20.2195927,12.0203733 18.9371912,10.7277337 C17.6547897,9.43509406 17.2439814,9.62113538 16.0599327,9.62113538 C14.885298,9.62113538 13.7641252,10.0428771 13.1423758,10.7277337 C11.5207606,12.5139419 12.0176938,16.7121037 12.8593404,18.6415022 C13.7009869,20.5709007 14.755312,21.5457871 16.0599327,21.5457871 Z" id="Path-3-Copy" fill="#BED3FF"></path>
                                            <path d="M16.0599327,21.5457871 C17.3645533,21.5457871 17.8585797,20.9399234 19.0390862,19.0652749 C19.5266664,18.2909958 19.8128632,16.954517 19.8904972,15.5612526 C20.0008269,13.5812103 19.6899271,11.4864791 18.9371912,10.7277337 C18.8857584,12.5916972 18.3278157,14.4084391 17.335869,16.9573891 C16.5156832,19.0649749 15.0150374,19.6132339 13.9728104,20.4961692 C14.5837388,21.1944451 15.2767334,21.5457871 16.0599327,21.5457871 Z" id="Path-3-Copy-5" fill="#4984FF" opacity="0.292015439"></path>
                                            <path d="M18.1982828,5.5 C16.9084807,8.37555681 15.7752765,10.3433988 14.7986701,11.4035261 C13.8220637,12.4636534 12.3823365,13.2887837 10.4794886,13.878917 L12.5562734,7.02626844 L18.1982828,5.5 Z" id="Path" fill="#004DEC"></path>
                                            <circle id="Oval" stroke="#3476FE" stroke-width="2" cx="16" cy="16" r="15"></circle>
                                        </g>
                                    </g>
                                </g>
                            </g>
                        </g>
                    </g>
                </g>
            </g>
        </g>
    </g>
</svg>