<?xml version="1.0" encoding="UTF-8"?>
<svg width="14px" height="14px" viewBox="0 0 14 14" version="1.1" xmlns="http://www.w3.org/2000/svg" xmlns:xlink="http://www.w3.org/1999/xlink">
    <!-- Generator: Sketch 63 (92445) - https://sketch.com -->
    <title>日历 </title>
    <desc>Created with Sketch.</desc>
    <g id="Page-1" stroke="none" stroke-width="1" fill="none" fill-rule="evenodd">
        <g id="1.5-会议记录" transform="translate(-343.000000, -123.000000)" fill-rule="nonzero">
            <g id="Group" transform="translate(0.000000, 87.000000)">
                <g id="Group-2" transform="translate(274.000000, 32.000000)">
                    <g id="日历-" transform="translate(68.000000, 3.000000)">
                        <rect id="Rectangle" fill="#000000" opacity="0" x="0" y="0" width="16" height="16"></rect>
                        <path d="M6.1634375,1.484375 C6.43953125,1.484375 6.6634375,1.70828125 6.6634375,1.984375 L6.6634375,3.6946875 C6.6634375,3.97078125 6.43953125,4.1946875 6.1634375,4.1946875 L5.985625,4.1946875 C5.70953125,4.1946875 5.485625,3.97078125 5.485625,3.6946875 L5.4855,3.319375 L2.8125,3.31984375 L2.8125,5.051375 L13.1875,5.051375 L13.1875,3.31984375 L11.6175,3.31984375 C11.3414063,3.31984375 11.1175,3.0959375 11.1175,2.81984375 C11.1175,2.54375 11.3414063,2.31984375 11.6175,2.31984375 L13.6875,2.31984375 C13.9635937,2.31984375 14.1875,2.54375 14.1875,2.81984375 L14.1875,13.8142187 C14.1875,14.0903125 13.9635937,14.3142187 13.6875,14.3142187 L2.3125,14.3142187 C2.03640625,14.3142187 1.8125,14.0903125 1.8125,13.8142187 L1.8125,2.81984375 C1.8125,2.54375 2.03640625,2.31984375 2.3125,2.31984375 L5.4855,2.319375 L5.485625,1.984375 C5.485625,1.70828125 5.70953125,1.484375 5.985625,1.484375 L6.1634375,1.484375 Z M13.1875,6.093375 L2.8125,6.093375 L2.8125,13.3142187 L13.1875,13.3142187 L13.1875,6.093375 Z M5.33578125,11.5548437 C5.611875,11.5548437 5.83578125,11.77875 5.83578125,12.0548437 L5.83578125,12.2367187 C5.83578125,12.5128125 5.61203125,12.7367187 5.33578125,12.7367187 L4.0915625,12.7367187 C3.81546875,12.7367187 3.5915625,12.5128125 3.5915625,12.2367187 L3.5915625,12.0548437 C3.5915625,11.77875 3.81546875,11.5548437 4.0915625,11.5548437 L5.33578125,11.5548437 Z M8.6178125,11.5548437 C8.89390625,11.5548437 9.1178125,11.77875 9.1178125,12.0548437 L9.1178125,12.2367187 C9.1178125,12.5128125 8.89390625,12.7367187 8.6178125,12.7367187 L7.37359375,12.7367187 C7.0975,12.7367187 6.87359375,12.5128125 6.87359375,12.2367187 L6.87359375,12.0548437 C6.87359375,11.77875 7.0975,11.5548437 7.37359375,11.5548437 L8.6178125,11.5548437 Z M11.8998438,11.5548437 C12.1759375,11.5548437 12.3998438,11.77875 12.3998438,12.0548437 L12.3998438,12.2367187 C12.3998438,12.5128125 12.1759375,12.7367187 11.8998438,12.7367187 L10.655625,12.7367187 C10.3795313,12.7367187 10.155625,12.5128125 10.155625,12.2367187 L10.155625,12.0548437 C10.155625,11.77875 10.3795313,11.5548437 10.655625,11.5548437 L11.8998438,11.5548437 Z M5.33578125,9.385 C5.611875,9.385 5.83578125,9.60890625 5.83578125,9.885 L5.83578125,10.066875 C5.83578125,10.3429687 5.61203125,10.566875 5.33578125,10.566875 L4.0915625,10.566875 C3.81546875,10.566875 3.5915625,10.3429687 3.5915625,10.066875 L3.5915625,9.885 C3.5915625,9.60890625 3.81546875,9.385 4.0915625,9.385 L5.33578125,9.385 Z M8.6178125,9.385 C8.89390625,9.385 9.1178125,9.60890625 9.1178125,9.885 L9.1178125,10.066875 C9.1178125,10.3429687 8.89390625,10.566875 8.6178125,10.566875 L7.37359375,10.566875 C7.0975,10.566875 6.87359375,10.3429687 6.87359375,10.066875 L6.87359375,9.885 C6.87359375,9.60890625 7.0975,9.385 7.37359375,9.385 L8.6178125,9.385 Z M11.8998438,9.385 C12.1759375,9.385 12.3998438,9.60890625 12.3998438,9.885 L12.3998438,10.066875 C12.3998438,10.3429687 12.1759375,10.566875 11.8998438,10.566875 L10.655625,10.566875 C10.3795313,10.566875 10.155625,10.3429687 10.155625,10.066875 L10.155625,9.885 C10.155625,9.60890625 10.3795313,9.385 10.655625,9.385 L11.8998438,9.385 Z M5.33578125,7.21515625 C5.611875,7.21515625 5.83578125,7.4390625 5.83578125,7.71515625 L5.83578125,7.89703125 C5.83578125,8.17328125 5.61203125,8.39703125 5.33578125,8.39703125 L4.0915625,8.39703125 C3.81546875,8.39703125 3.5915625,8.173125 3.5915625,7.89703125 L3.5915625,7.71515625 C3.5915625,7.4390625 3.81546875,7.21515625 4.0915625,7.21515625 L5.33578125,7.21515625 Z M8.6178125,7.21515625 C8.89390625,7.21515625 9.1178125,7.4390625 9.1178125,7.71515625 L9.1178125,7.89703125 C9.1178125,8.17328125 8.89390625,8.39703125 8.6178125,8.39703125 L7.37359375,8.39703125 C7.0975,8.39703125 6.87359375,8.173125 6.87359375,7.89703125 L6.87359375,7.71515625 C6.87359375,7.4390625 7.0975,7.21515625 7.37359375,7.21515625 L8.6178125,7.21515625 Z M11.8998438,7.21515625 C12.1759375,7.21515625 12.3998438,7.4390625 12.3998438,7.71515625 L12.3998438,7.89703125 C12.3998438,8.17328125 12.1759375,8.39703125 11.8998438,8.39703125 L10.655625,8.39703125 C10.3795313,8.39703125 10.155625,8.173125 10.155625,7.89703125 L10.155625,7.71515625 C10.155625,7.4390625 10.3795313,7.21515625 10.655625,7.21515625 L11.8998438,7.21515625 Z M10.014375,1.484375 C10.2904688,1.484375 10.514375,1.70828125 10.514375,1.984375 L10.514375,3.6946875 C10.514375,3.97078125 10.2904688,4.1946875 10.014375,4.1946875 L9.8365625,4.1946875 C9.56046875,4.1946875 9.3365625,3.97078125 9.3365625,3.6946875 L9.3365,3.432375 L7.75703125,3.43328125 C7.4809375,3.43328125 7.25703125,3.209375 7.25703125,2.93328125 C7.25703125,2.6571875 7.4809375,2.43328125 7.75703125,2.43328125 L9.3365,2.432375 L9.3365625,1.984375 C9.3365625,1.70828125 9.56046875,1.484375 9.8365625,1.484375 L10.014375,1.484375 Z" id="Combined-Shape" fill="#606266"></path>
                    </g>
                </g>
            </g>
        </g>
    </g>
</svg>