<?xml version="1.0" encoding="UTF-8"?>
<svg width="12px" height="12px" viewBox="0 0 12 12" version="1.1" xmlns="http://www.w3.org/2000/svg" xmlns:xlink="http://www.w3.org/1999/xlink">
    <!-- Generator: Sketch 63 (92445) - https://sketch.com -->
    <title>icon/human</title>
    <desc>Created with Sketch.</desc>
    <g id="Page-1" stroke="none" stroke-width="1" fill="none" fill-rule="evenodd">
        <g id="UI修改说明" transform="translate(-689.000000, -2197.000000)">
            <g id="icon/human" transform="translate(688.000000, 2196.000000)">
                <g>
                    <rect id="Rectangle" fill="#000000" fill-rule="nonzero" opacity="0" x="0" y="0" width="14" height="14"></rect>
                    <path d="M7.00095703,1.53138672 C8.80988281,1.53138672 10.282207,3.00371094 10.282207,4.81263672 C10.282207,5.79195171 9.8507213,6.67261163 9.16789409,7.27440714 C10.8604861,8.08298457 12.032207,9.81336018 12.032207,11.8126367 C12.032207,12.1749414 11.7382617,12.4688867 11.375957,12.4688867 C11.0136523,12.4688867 10.719707,12.1749414 10.719707,11.8126367 C10.719707,9.76185547 9.05173828,8.09388672 7.00095703,8.09388672 C4.95017578,8.09388672 3.28220703,9.76185547 3.28220703,11.8126367 C3.28220703,12.1749414 2.98826172,12.4688867 2.62595703,12.4688867 C2.26365234,12.4688867 1.96970703,12.1749414 1.96970703,11.8126367 C1.96970703,9.81375273 3.14096788,8.0836641 4.83332627,7.27253413 C4.151105,6.67235073 3.71970703,5.79180665 3.71970703,4.81263672 C3.71970703,3.00371094 5.19203125,1.53138672 7.00095703,1.53138672 Z M7.00095703,2.84388672 C5.91568359,2.84388672 5.03220703,3.72736328 5.03220703,4.81263672 C5.03220703,5.89791016 5.91568359,6.78138672 7.00095703,6.78138672 C8.08623047,6.78138672 8.96970703,5.89791016 8.96970703,4.81263672 C8.96970703,3.72736328 8.08623047,2.84388672 7.00095703,2.84388672 Z" id="Combined-Shape" fill="#C7C7CC"></path>
                </g>
            </g>
        </g>
    </g>
</svg>