<?xml version="1.0" encoding="UTF-8"?>
<svg width="42px" height="42px" viewBox="0 0 42 42" version="1.1" xmlns="http://www.w3.org/2000/svg" xmlns:xlink="http://www.w3.org/1999/xlink">
    <!-- Generator: Sketch 63 (92445) - https://sketch.com -->
    <title>默认会议室</title>
    <desc>Created with Sketch.</desc>
    <defs>
        <rect id="path-1" x="0" y="0" width="40" height="40" rx="0.5"></rect>
    </defs>
    <g id="Page-1" stroke="none" stroke-width="1" fill="none" fill-rule="evenodd">
        <g id="2.4-选择会议室" transform="translate(-15.000000, -272.000000)">
            <g id="会议室卡片" transform="translate(0.000000, 259.000000)">
                <g id="默认会议室" transform="translate(16.000000, 14.000000)">
                    <g>
                        <mask id="mask-2" fill="white">
                            <use xlink:href="#path-1"></use>
                        </mask>
                        <rect stroke="#CBDCFF" x="-0.5" y="-0.5" width="41" height="41" rx="0.5"></rect>
                        <path d="M0,6.95842868 L32.4477839,6.95842868 C32.7239263,6.95842868 32.9477839,7.1822863 32.9477839,7.45842868 C32.9477839,7.47496013 32.946964,7.49148142 32.9453273,7.50793165 L30.5048102,32.0370264 C30.4788513,32.2979338 30.255758,32.4944738 29.9936596,32.4873383 L0,31.6707788 L0,31.6707788" id="Path" stroke="#6697FF" fill="#FFFFFF" mask="url(#mask-2)"></path>
                        <g id="Group-5" mask="url(#mask-2)">
                            <g transform="translate(2.000000, 26.000000)">
                                <polygon id="Path-21" fill="#7EA9FF" points="9.18485925 10.8900968 8.86612676 12.6712194 7.61718761 12.4915439 8.06606239 10.5247818"></polygon>
                                <path d="M10.0050131,14.0230544 C10.0050131,14.1451609 7.53733184,13.9299522 7.35740525,13.791209 C7.23745419,13.6987136 7.32720822,13.2415101 7.62666734,12.4195984 C7.8027299,12.2283821 7.97993604,12.1523349 8.15828576,12.191457 C8.42581033,12.25014 8.43840005,12.5880287 8.59516962,12.6320448 C8.75193919,12.676061 8.78269256,12.2071519 8.97084329,12.4195984 C9.15899402,12.6320448 10.0050131,13.9009479 10.0050131,14.0230544 Z" id="Path-22" fill="#578EFF"></path>
                                <polygon id="Path-24" fill="#7EA9FF" points="3.63300873 10.4259298 4.14186848 12.5321661 3.03519081 12.8320873 2.54824312 10.8376144"></polygon>
                                <path d="M3.91080025,12.2198962 C3.55572516,12.2852139 3.41081012,12.6526196 3.28149664,12.6881699 C3.15218316,12.7237201 3.27342945,12.454033 3.05913098,12.454033 C2.8448325,12.454033 1.86518683,13.8898359 1.99256682,14.0322203 C2.11994681,14.1746046 4.39784509,14.0160231 4.55429208,13.8539259 C4.65859007,13.7458612 4.65859007,13.2792302 4.55429208,12.454033 C4.36201426,12.2543966 4.14751698,12.176351 3.91080025,12.2198962 Z" id="Path-23" fill="#578EFF"></path>
                                <path d="M6.27322137,0 C9.53052243,0.010073527 11.2729073,0.452956769 11.500376,1.32864972 C11.7278446,2.20434268 11.0300098,5.55431587 9.40687131,11.3785693 L7.38346887,11.1244949 C8.28154439,6.81959663 8.73058215,4.5389489 8.73058215,4.28255172 C8.73058215,3.89795595 4.42729059,3.73801826 4.07233896,4.28255172 C3.83570454,4.64557403 3.93290543,6.92622176 4.36394163,11.1244949 L2.29952278,11.3785693 C1.12834886,5.58296371 0.740186196,2.35202672 1.13503479,1.6857583 C1.52988338,1.01948987 3.24261224,0.457570443 6.27322137,0 Z" id="Path-20" fill="#4582FF"></path>
                            </g>
                        </g>
                        <path d="M8.5,39 L12.9088715,39.801613 C12.9632092,39.8114926 12.9992496,39.8635509 12.98937,39.9178885 C12.9807247,39.9654376 12.9393116,40 12.890983,40 L4.10901699,40 C4.05378852,40 4.00901699,39.9552285 4.00901699,39.9 C4.00901699,39.8516714 4.04357938,39.8102583 4.09112845,39.801613 L8.5,39 L8.5,39 Z" id="Rectangle" fill="#7BA5FF" mask="url(#mask-2)"></path>
                        <path d="M22.5,39 L26.9088715,39.801613 C26.9632092,39.8114926 26.9992496,39.8635509 26.98937,39.9178885 C26.9807247,39.9654376 26.9393116,40 26.890983,40 L18.109017,40 C18.0537885,40 18.009017,39.9552285 18.009017,39.9 C18.009017,39.8516714 18.0435794,39.8102583 18.0911285,39.801613 L22.5,39 L22.5,39 Z" id="Rectangle-Copy-2" fill="#7BA5FF" mask="url(#mask-2)"></path>
                        <path d="M10.5749675,14.1499689 C11.679537,14.1499689 12.6090856,13.1261863 12.6090856,12.0216168 C12.6090856,10.9170473 12.1951186,10 11.0905491,10 C9.98597956,10 9,10.7045942 9,11.8091637 C9,12.9137332 9.47039802,14.1499689 10.5749675,14.1499689 Z" id="Oval" fill="#3476FE" mask="url(#mask-2)"></path>
                        <path d="M12.6090856,12.0216168 L12.6090856,12.2584788 C12.8582318,12.3426397 12.9634719,12.4834082 12.924806,12.6807843 C12.8668071,12.9768484 12.5249156,13.0525344 12.4126644,13.2611404 C12.3004132,13.4697465 12.3012817,14.0444462 12.0161423,14.3236446 C11.8260494,14.5097769 11.628329,14.6098138 11.4229811,14.6237553 L11.2199364,14.7604888 L9.50924115,14.7604888 C9.76349621,14.443674 9.8235777,14.2081695 9.68948563,14.0539754 C9.55539356,13.8997814 9.49531207,13.7462872 9.50924115,13.593493 C9.77253972,13.4585329 10.1067653,13.3910528 10.5119179,13.3910528 C10.9170706,13.3910528 11.2524121,13.4585329 11.5179425,13.593493 C11.6316293,13.2688269 11.7589042,13.0050319 11.8997671,12.802108 C12.04063,12.5991841 12.2770695,12.3390203 12.6090856,12.0216168 Z" id="Path-5" fill="#BED3FF" mask="url(#mask-2)"></path>
                        <path d="M3.28525291,30.1454826 L12.4326546,30.0075392 C12.7046332,30.0034377 12.9284404,30.2205951 12.9325418,30.4925737 C12.9325791,30.4950489 12.9325978,30.4975244 12.9325978,30.5 C12.9325978,30.7761424 12.7087402,31 12.4325978,31 L4.46726158,31 C4.17112081,31 3.89021115,30.8687417 3.70021114,30.6415868 L3.28525291,30.1454826 L3.28525291,30.1454826 Z" id="Rectangle" fill="#9BBCFF" mask="url(#mask-2)"></path>
                        <path d="M19.2194342,30.8313722 L24.9332784,30.9864359 C25.2114857,30.9939859 25.4330943,31.2216903 25.4330943,31.5 C25.4330943,31.7615376 25.2210762,31.9735557 24.9595386,31.9735557 C24.9509649,31.9735557 24.9423927,31.9733229 24.9338316,31.9728574 L19.8113136,31.6943702 C19.5345226,31.6793224 19.276396,31.5500577 19.0985483,31.3374315 L19.0199976,31.2435201 C18.931015,31.1371368 18.9451211,30.9787614 19.0515044,30.8897788 C19.0984853,30.8504824 19.158208,30.8297107 19.2194342,30.8313722 Z" id="Rectangle-Copy-3" fill="#9BBCFF" mask="url(#mask-2)"></path>
                        <rect id="Rectangle" fill="#7BA5FF" mask="url(#mask-2)" x="8" y="31" width="1" height="9"></rect>
                        <rect id="Rectangle-Copy-4" fill="#7BA5FF" mask="url(#mask-2)" x="22" y="32" width="1" height="8"></rect>
                        <polygon id="Path-9" fill="#BED3FF" mask="url(#mask-2)" points="22.1378588 13 22.6133623 15.1494774 21 15.1494774 21.6968248 12.6167771"></polygon>
                        <g id="Group-3" mask="url(#mask-2)">
                            <g transform="translate(19.000000, 9.000000)">
                                <path d="M4.40182813,0.801399897 L4.8,3.0252742 C5.17545176,3.31874114 5.32709405,3.51896312 5.25492688,3.62594014 C5.14667613,3.78640567 4.8,3.48955468 4.8,3.75807617 C4.8,4.02659766 4.8,5.26926337 4.09534425,5.26926337 C3.80315451,5.26926337 2.91928048,5.20731167 2.24382893,4.8 C1.9701547,4.6349686 1.62221172,4.26496239 1.2,3.68998134 C1.62276829,2.37031952 2.02276829,1.54032574 2.4,1.2 C2.77723171,0.859674262 3.44450775,0.726807561 4.40182813,0.801399897 Z" id="Path-8" fill="#BED3FF"></path>
                                <path d="M3.69296287,0.1104595 C1.92200476,0.564473426 0.502756346,1.07885954 0.0637650008,2.18066626 C-0.375226345,3.28247299 1.58350444,4.56091086 1.94081465,4.77194624 C2.17902145,4.9126365 2.35804285,4.52415302 2.47787885,3.60649582 C2.20570436,3.20492668 2.12401027,2.86740272 2.23279656,2.59392394 C2.34158286,2.32044515 2.59009252,2.32044515 2.97832555,2.59392394 C3.32668171,2.59263099 3.6288079,2.45487843 3.88470411,2.18066626 C4.14060033,1.9064541 4.312975,1.53574308 4.40182813,1.0685332 C5.10989002,0.127141449 4.8736016,-0.19221645 3.69296287,0.1104595 Z" id="Path-7" fill="#3476FE"></path>
                            </g>
                        </g>
                        <polygon id="Path-10" fill="#004DEC" mask="url(#mask-2)" points="21.2110859 14.7604888 22.5316755 14.7604888 24.8461152 15.1494774 27.5011182 18.7842684 29.4904532 16.5783303 30.6525862 17.3103246 27.5011182 21.0888563 24.7129816 18.7842684 24.1703661 24 19.5740208 24.3875384 17.6525862 16.5783303"></polygon>
                        <path d="M24.1525862,25 C25.5027262,27.9453964 25.7851975,29.9453964 25,31 C23.8222038,32.5819053 19.6073356,31 19,30 C18.5951096,29.3333333 18.9951096,27.6666667 20.2,25 L24.1525862,25 Z" id="Path-11" fill="#004DEC" mask="url(#mask-2)"></path>
                        <polygon id="Path-26" fill="#7EA9FF" mask="url(#mask-2)" points="20 36.4159682 19.6073356 37.8320873 18.2755263 37.4210442 18.7283123 35.9175144"></polygon>
                        <g id="Group-4" mask="url(#mask-2)">
                            <g transform="translate(24.337216, 34.939307) rotate(19.000000) translate(-24.337216, -34.939307) translate(20.837216, 28.939307)">
                                <polygon id="Path-26-Copy" fill="#7EA9FF" transform="translate(4.896941, 8.834126) rotate(-61.000000) translate(-4.896941, -8.834126) " points="5.83417273 8.61517013 5.06591754 9.79833334 3.95970973 9.0496657 4.82439749 7.86991839"></polygon>
                                <path d="M2.06349203,0.84564968 L5.82217743,7.90701568 L5.82217743,7.90701568 L4,9.033452 L0.428425069,1.89030213 C0.18481011,1.40307222 0.347978769,0.810551433 0.806681127,0.516725998 C1.21767752,0.253458999 1.76427599,0.373217332 2.02754299,0.784213722 C2.04034619,0.804201292 2.05233893,0.824696565 2.06349203,0.84564968 Z" id="Path-12" fill="#004DEC"></path>
                                <path d="M6.47573652,10.7880317 C6.15601,11.0150828 3.75004174,11.0150828 3.58046659,10.7880317 C3.4674165,10.6366643 3.74136418,10.1810815 4.40230963,9.42128334 C4.58917683,9.1623463 4.79777414,9.01211111 5.02810156,8.97057776 C5.25842897,8.9290444 5.52798414,8.99305766 5.83676706,9.16261753 C6.47589771,10.0948596 6.68888753,10.6366643 6.47573652,10.7880317 Z" id="Path-15" fill="#6899FF" transform="translate(5.055698, 9.958320) rotate(-16.000000) translate(-5.055698, -9.958320) "></path>
                            </g>
                        </g>
                        <polygon id="Path-13" fill="#004DEC" mask="url(#mask-2)" points="22.6133623 31 20 37.1128752 18 36.0211916 20.5474138 29.4965971"></polygon>
                        <path d="M19.7972571,37.5280856 C20.3181416,38.3006399 20.4879496,38.820562 20.3066811,39.0878521 C20.0347784,39.4887872 16.0742103,40.4123282 15.8488932,40.1967219 C15.6235761,39.9811156 17.1175977,39.0878521 17.3356973,38.6754873 C17.553797,38.2631226 17.8537944,37.2898067 18.0777872,37.1220686 C18.3017799,36.9543306 18.573657,37.4586048 18.8679061,37.5280856 C19.0640722,37.5744061 19.3738559,37.5744061 19.7972571,37.5280856 Z" id="Path-14" fill="#6899FF" mask="url(#mask-2)"></path>
                        <path d="M17.6525862,16.5783303 C16.1804065,21.0857966 15.6873468,23.4239291 16.173407,23.5927279 C16.6594673,23.7615267 18.7193414,23.8459261 22.3530294,23.8459261 L22.7623049,22.5148232 C20.3063727,22.1975221 18.9309042,21.9703596 18.6358995,21.8333357 C18.1933925,21.6277999 18.8457353,21.2711291 18.8457353,20.6956538 C18.8457353,20.3120036 18.4480189,18.9395625 17.6525862,16.5783303 Z" id="Path-16" fill="#004DEC" mask="url(#mask-2)"></path>
                        <path d="M22.7370834,22.5026681 C23.3832777,23.0245434 23.9672579,23.3552759 24.4890241,23.4948653 C25.0107902,23.6344547 25.3254803,23.802833 25.4330943,24 C24.655935,24 24.0474822,24 23.607736,24 C23.1679898,24 22.6984748,23.9610316 22.1991909,23.8830947 L21.8892489,22.6799657 L22.7370834,22.5026681 Z" id="Path-17" fill="#BED3FF" mask="url(#mask-2)"></path>
                        <path d="M22.5316755,14.7604888 L22.140169,19.5740136 L21.0880548,14.8004974 C21.1928839,14.7080748 21.3667729,14.658497 21.6097218,14.6517639 C21.8526708,14.6450308 22.1599886,14.6812724 22.5316755,14.7604888 Z" id="Path-18" fill="#BED3FF" mask="url(#mask-2)"></path>
                        <g id="Group-6" mask="url(#mask-2)">
                            <g transform="translate(10.000000, 17.000000)">
                                <path d="M9.90441382,0.230860908 L8.87365886,6.83086091 C8.8584534,6.92822257 8.77459606,7 8.67605419,7 L1.20421574,7 C1.09375879,7 1.00421574,6.91045695 1.00421574,6.8 C1.00421574,6.78946214 1.00504859,6.77894076 1.0067065,6.76853413 L2.05817485,0.168534134 C2.07364188,0.0714485609 2.15737418,-3.47509328e-15 2.25568409,-3.55271368e-15 L9.70680916,-3.55271368e-15 C9.81726611,-3.93382677e-15 9.90680916,0.08954305 9.90680916,0.2 C9.90680916,0.210333402 9.90600831,0.220651265 9.90441382,0.230860908 Z" id="Path-25" fill="#286EFF"></path>
                                <path d="M9.60078304,0.417464506 L8.69324546,5.68852176 C8.67672515,5.78447312 8.59350868,5.85458632 8.49614552,5.85458632 L1.52816795,5.85458632 C1.417711,5.85458632 1.32816795,5.76504327 1.32816795,5.65458632 C1.32816795,5.6417246 1.32940862,5.62889287 1.33187273,5.61626939 L2.36078586,0.345212145 C2.37911738,0.251300932 2.46139743,0.183529074 2.55708108,0.183529074 L9.4036831,0.183529074 C9.51414005,0.183529074 9.6036831,0.273072124 9.6036831,0.383529074 C9.6036831,0.394902768 9.6027129,0.406255734 9.60078304,0.417464506 Z" id="Path-25-Copy" fill="#BED3FF"></path>
                            </g>
                        </g>
                        <path d="M29.4879034,17.4094445 L29.1732769,16.8155621 L29.1732769,16.3379175 C29.0247952,15.8508073 28.9717395,15.566726 29.0141096,15.4856734 C29.0564797,15.4046208 29.214411,15.4880791 29.4879034,15.7360482 L29.7244437,16.0976689 C30.2087775,14.8127628 30.4794285,14.1228 30.5363968,14.0277805 C30.5933651,13.9327609 30.6472054,14.081493 30.6979174,14.4739767 L30.3969115,15.4856734 L30.8525921,14.7735564 C31.0701529,14.4069266 31.2061916,14.2129857 31.260708,14.1917335 C31.3152245,14.1704813 31.3152245,14.3113903 31.260708,14.6144604 C31.2732757,14.8368442 31.2523467,14.9836444 31.197921,15.0548608 C31.1434953,15.1260773 31.0283857,15.3473278 30.8525921,15.7186125 L31.0136849,15.7186125 C31.11924,15.4798787 31.201581,15.3311109 31.260708,15.2723093 C31.3493985,15.1841068 31.8672591,14.944848 32.0011356,14.9834263 C32.0903866,15.0091451 32.0903866,15.1054395 32.0011356,15.2723093 L31.6534919,15.4856734 L31.260708,15.8733942 L31.6534919,15.7360482 C32.0217202,15.7081436 32.2303065,15.7081436 32.2792506,15.7360482 C32.3281947,15.7639528 32.2767078,15.8535201 32.1247898,16.00475 L31.7556814,16.0976689 L31.4700787,16.3379175 C31.2863607,16.7229189 31.1342294,17.0008798 31.0136849,17.1718 C30.8328681,17.4281804 30.0539105,17.737177 29.8928351,17.6878447 C29.7854515,17.6549566 29.6504743,17.5621565 29.4879034,17.4094445 Z" id="Path-19" fill="#BED3FF" mask="url(#mask-2)"></path>
                        <path d="M0,24 L35.5171573,24 C35.6276142,24 35.7171573,24.0895431 35.7171573,24.2 C35.7171573,24.2530433 35.6960859,24.3039141 35.6585786,24.3414214 L34.2928932,25.7071068 C34.1053568,25.8946432 33.8510029,26 33.5857864,26 L0,26 L0,26 L0,24 Z" id="Rectangle" fill="#9BBCFF" mask="url(#mask-2)"></path>
                        <path d="M11.2199364,14.7604888 L11.4794764,14.9175691 C12.7598024,15.3611236 13.6586809,15.905148 14.1761119,16.5496423 C14.693543,17.1941366 15.7346256,18.8546273 17.2993599,21.5311143 C18.5503686,22.3401028 19.2717535,22.8539785 19.4635147,23.0727413 C19.6552759,23.2915041 19.6552759,23.6005903 19.4635147,24 C17.7027807,24 16.5562539,23.8370329 16.0239342,23.5110987 C15.4916146,23.1851645 14.6210374,22.0147983 13.4122026,20 C12.8767912,21.7296866 12.6090856,22.9000528 12.6090856,23.5110987 C12.6090856,24.4276675 12.9325978,26.0980499 12.9325978,26.0980499 C12.9325978,26.0980499 10.2669908,26.5377745 4.9357767,27.4172237 C4.38726208,23.2080102 4.38726208,20.3440896 4.9357767,18.8254619 C5.48429131,17.3068342 7.00812409,15.9518431 9.50727502,14.7604888 L11.2199364,14.7604888 Z" id="Path-6" fill="#3476FE" mask="url(#mask-2)"></path>
                        <path d="M10.5205174,16.9643189 L10.9911358,30.1454826 L10.9911358,30.1454826 L3.28525291,30.1454826 L2.0990812,17.0904869 C2.04910669,16.5404678 2.4544729,16.0540769 3.00449199,16.0041024 C3.03457683,16.0013689 3.06477008,16 3.09497885,16 L9.52115419,16 C10.0595526,16 10.5013068,16.4262633 10.5205174,16.9643189 Z" id="Path-4" fill="#004DEC" mask="url(#mask-2)"></path>
                        <rect id="Rectangle" fill="#9BBCFF" mask="url(#mask-2)" x="28" y="26" width="1" height="14"></rect>
                    </g>
                </g>
            </g>
        </g>
    </g>
</svg>