<?xml version="1.0" encoding="UTF-8"?>
<svg width="118px" height="109px" viewBox="0 0 118 109" version="1.1" xmlns="http://www.w3.org/2000/svg" xmlns:xlink="http://www.w3.org/1999/xlink">
    <!-- Generator: Sketch 63 (92445) - https://sketch.com -->
    <title>VI</title>
    <desc>Created with Sketch.</desc>
    <g id="Page-1" stroke="none" stroke-width="1" fill="none" fill-rule="evenodd">
        <g id="1.0-待登录" transform="translate(-128.000000, -202.000000)">
            <g id="VI" transform="translate(114.000000, 171.000000)">
                <g>
                    <rect id="Rectangle" fill-opacity="0" fill="#000000" x="0" y="0" width="146" height="162"></rect>
                    <g id="LOGO" transform="translate(26.000000, 10.000000)" fill="#000000" fill-opacity="0">
                        <rect id="Rectangle" x="0" y="0" width="95" height="95"></rect>
                    </g>
                    <path d="M30.96,117.936 L30.96,112.048 L42.768,112.048 L42.768,108.912 L30.96,108.912 L30.96,98.16 L41.712,98.16 L41.712,95.024 L15.728,95.024 L15.728,98.16 L26.512,98.16 L26.512,108.912 L14.672,108.912 L14.672,112.048 L26.512,112.048 L26.512,117.936 L30.96,117.936 Z M38.224,107.664 L40.08,99.664 L36.24,99.664 L34.384,107.664 L38.224,107.664 Z M23.376,107.664 L21.648,99.664 L17.808,99.664 L19.536,107.664 L23.376,107.664 Z M72.336,118 L72.336,114.736 C70.992,114.629333 69.6586667,114.469333 68.336,114.256 C67.0133333,114.042667 65.6906667,113.786667 64.368,113.488 C65.4346667,113.061333 66.48,112.608 67.504,112.128 C68.528,111.648 69.552,111.130667 70.576,110.576 L70.576,110.576 L70.576,106.672 L72.336,106.672 L72.336,103.504 L70.576,103.504 L70.576,102.608 L72.336,102.608 L72.336,100.24 C72.336,99.7493333 72.24,99.2906667 72.048,98.864 C71.856,98.4373333 71.6,98.064 71.28,97.744 C70.96,97.424 70.5866667,97.1733333 70.16,96.992 C69.7333333,96.8106667 69.2853333,96.72 68.816,96.72 L68.816,96.72 L60.656,96.72 L59.888,94.928 L55.024,94.928 L55.824,96.72 L43.984,96.72 L43.984,102.608 L45.712,102.608 L45.712,103.504 L43.984,103.504 L43.984,106.672 L45.712,106.672 L45.712,110.576 C46.736,111.130667 47.76,111.648 48.784,112.128 C49.808,112.608 50.864,113.061333 51.952,113.488 C50.608,113.786667 49.28,114.042667 47.968,114.256 C46.656,114.469333 45.328,114.629333 43.984,114.736 L43.984,114.736 L43.984,118 C46.4373333,117.829333 48.8426667,117.541333 51.2,117.136 C53.5573333,116.730667 55.8773333,116.208 58.16,115.568 C62.6613333,116.826667 67.3866667,117.637333 72.336,118 L72.336,118 Z M66.16,103.504 L50.16,103.504 L50.16,101.488 L48.4,101.488 L48.4,99.888 L66.896,99.888 C67.1733333,99.888 67.408,99.984 67.6,100.176 C67.792,100.368 67.888,100.602667 67.888,100.88 L67.888,100.88 L67.888,101.488 L66.16,101.488 L66.16,103.504 Z M58.128,111.792 C56.784,111.365333 55.456,110.906667 54.144,110.416 C52.832,109.925333 51.504,109.402667 50.16,108.848 L50.16,108.848 L50.16,106.672 L66.16,106.672 L66.16,108.848 C64.816,109.402667 63.4773333,109.925333 62.144,110.416 C60.8106667,110.906667 59.472,111.365333 58.128,111.792 Z M78.224,101.84 L80.464,97.648 L94.8,97.648 L96.976,101.84 L101.616,101.84 L98.032,94.928 L77.2,94.928 L73.584,101.84 L78.224,101.84 Z M99.664,106.384 L99.664,103.216 L75.792,103.216 L75.792,106.384 L99.664,106.384 Z M101.168,118.032 L98.8,112.432 L94.064,112.432 L94.768,114.16 L79.568,114.16 L80.56,111.12 L101.008,111.12 L101.008,107.952 L74.288,107.952 L74.288,111.12 L76.336,111.12 L74.288,117.296 L96.112,117.296 L96.432,118.032 L101.168,118.032 Z M124.432,100.24 L123.184,94.864 L119.12,94.864 L120.368,100.24 L124.432,100.24 Z M110.544,100.08 L108.208,94.928 L103.024,94.928 L105.328,100.08 L110.544,100.08 Z M131.088,118.064 L131.088,113.328 C129.829333,112.688 128.677333,112.016 127.632,111.312 C126.586667,110.608 125.626667,109.850667 124.752,109.04 C126.245333,107.141333 127.509333,105.056 128.544,102.784 C129.578667,100.512 130.426667,98.0533333 131.088,95.408 L131.088,95.408 L126.576,95.408 C125.978667,97.4773333 125.301333,99.3653333 124.544,101.072 C123.786667,102.778667 122.874667,104.346667 121.808,105.776 C120.72,104.346667 119.797333,102.778667 119.04,101.072 C118.282667,99.3653333 117.616,97.4773333 117.04,95.408 L117.04,95.408 L112.496,95.408 C113.157333,98.0533333 114.005333,100.512 115.04,102.784 C116.074667,105.056 117.349333,107.141333 118.864,109.04 C117.093333,110.64 114.970667,112.069333 112.496,113.328 L112.496,113.328 L112.496,118.064 C114.352,117.317333 116.048,116.458667 117.584,115.488 C119.12,114.517333 120.528,113.434667 121.808,112.24 C123.088,113.434667 124.490667,114.517333 126.016,115.488 C127.541333,116.458667 129.232,117.317333 131.088,118.064 L131.088,118.064 Z M110.928,118 L112.144,115.248 L110.288,115.248 C109.989333,115.248 109.744,115.152 109.552,114.96 C109.36,114.768 109.264,114.533333 109.264,114.256 L109.264,114.256 L109.264,101.936 L102.992,101.936 L102.992,105.072 L104.848,105.072 L104.848,114.512 C104.848,115.002667 104.938667,115.456 105.12,115.872 C105.301333,116.288 105.552,116.656 105.872,116.976 C106.192,117.296 106.565333,117.546667 106.992,117.728 C107.418667,117.909333 107.877333,118 108.368,118 L108.368,118 L110.928,118 Z" id="平安会议" fill="#303133" fill-rule="nonzero"></path>
                    <path d="M20.73,137 L20.73,133.31 L22.275,133.31 C24.975,133.31 26.085,132.365 26.085,129.92 C26.085,127.61 25.215,126.59 22.275,126.59 L19.38,126.59 L19.38,137 L20.73,137 Z M22.155,132.185 L20.73,132.185 L20.73,127.76 L22.155,127.76 C24.09,127.76 24.705,128.33 24.705,129.92 C24.705,131.675 24.09,132.185 22.155,132.185 Z M28.98,127.415 C29.52,127.415 29.745,127.31 29.745,126.65 C29.745,125.975 29.52,125.885 28.98,125.885 C28.41,125.885 28.2,125.975 28.2,126.65 C28.2,127.31 28.41,127.415 28.98,127.415 Z M29.61,137 L29.61,128.9 L28.32,128.9 L28.32,137 L29.61,137 Z M33.63,137 L33.63,131.525 C34.08,130.1 35.07,129.905 36.09,129.905 C37.38,129.905 37.635,130.625 37.635,131.87 L37.635,137 L38.94,137 L38.94,131.39 C38.94,129.845 38.34,128.75 36.225,128.75 C35.235,128.75 34.125,129.02 33.63,130.055 L33.63,128.9 L32.34,128.9 L32.34,137 L33.63,137 Z M44.46,140 C47.205,140 48.42,138.665 48.42,136.43 L48.42,128.9 L47.13,128.9 L47.13,130.415 C46.815,129.455 46.14,128.75 44.505,128.75 C41.805,128.75 41.145,130.64 41.145,132.875 C41.145,135.35 41.805,137 44.505,137 C46.065,137 46.8,136.43 47.13,135.485 L47.13,136.295 C47.13,138.155 46.275,138.89 44.475,138.89 C43.785,138.89 43.11,138.83 42.495,138.71 L42.495,139.805 C43.005,139.91 43.77,140 44.46,140 Z M44.685,135.92 C42.8456897,135.92 42.5445482,134.661498 42.5259668,133.049073 L42.525,132.875 C42.525,131.3 42.735,129.83 44.685,129.83 C46.635,129.83 47.175,131.015 47.175,132.875 C47.175,134.81 46.635,135.92 44.685,135.92 Z M53.4,137.15 C54.615,137.15 55.83,136.655 56.295,135.77 L56.49,137 L57.585,137 L57.585,131.255 C57.585,129.8 56.91,128.75 54.36,128.75 C53.775,128.75 53.115,128.795 52.515,128.87 L52.515,130.01 C53.1,129.89 53.76,129.83 54.3,129.83 C55.95,129.83 56.295,130.505 56.295,131.48 L56.295,132.155 L53.82,132.155 C51.885,132.155 50.61,132.815 50.61,134.735 C50.61,136.265 51.465,137.15 53.4,137.15 Z M53.52,136.07 C52.38,136.07 51.945,135.605 51.945,134.72 C51.945,133.46 52.575,133.19 53.91,133.19 L56.295,133.19 L56.295,134.525 C55.875,135.485 54.87,136.07 53.52,136.07 Z M61.62,137 L61.62,131.525 C62.07,130.1 63.06,129.905 64.08,129.905 C65.37,129.905 65.625,130.625 65.625,131.87 L65.625,137 L66.93,137 L66.93,131.39 C66.93,129.845 66.33,128.75 64.215,128.75 C63.225,128.75 62.115,129.02 61.62,130.055 L61.62,128.9 L60.33,128.9 L60.33,137 L61.62,137 Z M74.79,137 L74.79,127.955 L74.88,127.955 L77.58,134.645 L79.05,134.645 L81.72,127.955 L81.81,127.955 L81.81,137 L83.16,137 L83.16,126.59 L81.03,126.59 L78.375,133.295 L78.285,133.295 L75.63,126.59 L73.47,126.59 L73.47,137 L74.79,137 Z M89.175,137.15 C90.33,137.15 91.44,136.91 91.905,136.67 L91.905,135.485 C91.29,135.785 90.255,136.01 89.37,136.01 C87.405,136.01 86.79,135.2 86.775,133.43 L92.265,133.085 C92.31,132.71 92.34,132.365 92.34,132.14 C92.34,130.565 91.86,128.75 89.1,128.75 C86.79,128.75 85.425,129.725 85.425,132.95 C85.425,136.175 86.79,137.15 89.175,137.15 Z M86.775,132.47 C86.82,130.82 87.24,129.815 89.1,129.815 C90.855,129.815 91.065,130.91 91.065,132.155 L86.775,132.47 Z M97.845,137.15 C99,137.15 100.11,136.91 100.575,136.67 L100.575,135.485 C99.96,135.785 98.925,136.01 98.04,136.01 C96.075,136.01 95.46,135.2 95.445,133.43 L100.935,133.085 C100.98,132.71 101.01,132.365 101.01,132.14 C101.01,130.565 100.53,128.75 97.77,128.75 C95.46,128.75 94.095,129.725 94.095,132.95 C94.095,136.175 95.46,137.15 97.845,137.15 Z M95.445,132.47 C95.49,130.82 95.91,129.815 97.77,129.815 C99.525,129.815 99.735,130.91 99.735,132.155 L95.445,132.47 Z M105.735,137.09 C106.08,137.09 106.335,137.06 106.65,137.015 L106.65,135.92 C106.365,135.98 106.125,136.01 105.765,136.01 C104.775,136.01 104.595,135.71 104.595,134.45 L104.595,129.98 L106.605,129.98 L106.605,128.9 L104.595,128.9 L104.595,126.98 L103.305,126.98 L103.305,128.9 L102.105,128.9 L102.105,129.98 L103.305,129.98 L103.305,134.525 C103.305,136.655 103.95,137.09 105.735,137.09 Z M108.96,127.415 C109.5,127.415 109.725,127.31 109.725,126.65 C109.725,125.975 109.5,125.885 108.96,125.885 C108.39,125.885 108.18,125.975 108.18,126.65 C108.18,127.31 108.39,127.415 108.96,127.415 Z M109.59,137 L109.59,128.9 L108.3,128.9 L108.3,137 L109.59,137 Z M113.61,137 L113.61,131.525 C114.06,130.1 115.05,129.905 116.07,129.905 C117.36,129.905 117.615,130.625 117.615,131.87 L117.615,137 L118.92,137 L118.92,131.39 C118.92,129.845 118.32,128.75 116.205,128.75 C115.215,128.75 114.105,129.02 113.61,130.055 L113.61,128.9 L112.32,128.9 L112.32,137 L113.61,137 Z M124.44,140 C127.185,140 128.4,138.665 128.4,136.43 L128.4,128.9 L127.11,128.9 L127.11,130.415 C126.795,129.455 126.12,128.75 124.485,128.75 C121.785,128.75 121.125,130.64 121.125,132.875 C121.125,135.35 121.785,137 124.485,137 C126.045,137 126.78,136.43 127.11,135.485 L127.11,136.295 C127.11,138.155 126.255,138.89 124.455,138.89 C123.765,138.89 123.09,138.83 122.475,138.71 L122.475,139.805 C122.985,139.91 123.75,140 124.44,140 Z M124.665,135.92 C122.82569,135.92 122.524548,134.661498 122.505967,133.049073 L122.505,132.875 C122.505,131.3 122.715,129.83 124.665,129.83 C126.615,129.83 127.155,131.015 127.155,132.875 C127.155,134.81 126.615,135.92 124.665,135.92 Z" id="PinganMeeting" fill="#303133" fill-rule="nonzero"></path>
                    <path d="M76.3362658,70 L79.0973072,57 L93.0973072,57 L95.2211851,47 L71.2211851,47 L64,81 L44,81 L54.6193899,31 L87.1193899,31 C97.8889425,31 104.765149,39.7304474 102.477828,50.5 C100.190506,61.2695526 89.6058184,70 78.8362658,70 L76.3362658,70 Z" id="Combined-Shape" fill="#2069FE"></path>
                </g>
            </g>
        </g>
    </g>
</svg>