<?xml version="1.0" encoding="UTF-8"?>
<svg width="20px" height="12px" viewBox="0 0 20 12" version="1.1" xmlns="http://www.w3.org/2000/svg" xmlns:xlink="http://www.w3.org/1999/xlink">
    <!-- Generator: Sketch 63 (92445) - https://sketch.com -->
    <title>Vr看房</title>
    <desc>Created with Sketch.</desc>
    <g id="Page-1" stroke="none" stroke-width="1" fill="none" fill-rule="evenodd">
        <g id="4.0-查看会议室" transform="translate(-16.000000, -239.000000)" fill-rule="nonzero">
            <g id="Group" transform="translate(16.000000, 235.000000)">
                <g id="Vr看房">
                    <rect id="Rectangle" fill="#000000" opacity="0" x="0" y="0" width="20" height="20"></rect>
                    <path d="M18.2075,5.535 C18.1225,5.5175 18.035,5.5075 17.945,5.5075 L3.115,5.5075 C2.355,5.5075 1.74,6.1925 1.74,7.035 L1.74,14.26 C1.74,14.3125 1.7425,14.365 1.7475,14.415 C1.8175,15.185 2.4025,15.7875 3.115,15.7875 L17.945,15.7875 C18.705,15.7875 19.3200097,15.1025 19.3200097,14.26 L19.3200097,7.035 C19.3225,6.2925 18.8425,5.6725 18.2075,5.535 L18.2075,5.535 Z M10.055,5.93 L12.9875,5.93 C13.8275,5.93 14.4125,6.05 14.7425,6.29 C14.97,6.45 15.145,6.6625 15.27,6.925 C15.3925,7.1875 15.455,7.4775 15.455,7.79 C15.455,8.4225 15.31,8.9125 15.0225,9.26 C14.8425,9.4675 14.605,9.6225 14.3125,9.73 C14.5475,9.8225 14.7225,9.9225 14.8425,10.025 C14.9625,10.1275 15.07,10.28 15.1675,10.48 C15.24,10.64 15.2925,10.7925 15.325,10.94 C15.3575,11.0875 15.3825,11.3025 15.4025,11.59 C15.4375,12.07 15.4875,12.4075 15.5475,12.6 L14.1175,12.6 C14.075,12.4475 14.03,12.13 13.9825,11.65 C13.9525,11.2625 13.89,10.9675 13.7975,10.76 C13.705,10.5525 13.565,10.39 13.38,10.27 C13.145,10.13 12.8075,10.0625 12.365,10.07 L11.34,10.07 L11.34,12.6 L10.0625,12.6 L10.0625,5.93 L10.055,5.93 Z M4.4325,5.93 L6.195,10.9475 L7.985,5.93 L9.425,5.93 L6.8,12.5975 L5.5225,12.5975 L2.995,5.93 L4.4325,5.93 Z M13.76,8.73 C13.9525,8.5825 14.0475,8.3275 14.0475,7.96 C14.0475,7.5525 13.9025,7.295 13.615,7.18 C13.5125,7.14 13.3475,7.12 13.12,7.12 L11.33,7.12 L11.33,8.88 L13.12,8.88 C13.4225,8.88 13.635,8.83 13.76,8.73 L13.76,8.73 Z" id="Shape" fill="#5088fe"></path>
                    <path d="M18.2075,5.535 C18.1375,4.765 17.5525,4.1625 16.84,4.1625 L2.01,4.1625 C1.25,4.1625 0.635,4.8475 0.635,5.69 L0.635,12.915 C0.635,13.66 1.115,14.28 1.7475,14.415 C1.8325,14.4325 1.92,14.4425 2.01,14.4425 L16.84,14.4425 C17.6,14.4425 18.215,13.7575 18.215,12.915 L18.215,5.69 C18.215,5.64 18.2125,5.5875 18.2075,5.535 Z M6.8,12.5975 L5.5225,12.5975 L2.995,5.93 L4.435,5.93 L6.1975,10.9475 L7.9875,5.93 L9.425,5.93 L6.8,12.5975 Z M14.1125,12.5975 C14.07,12.445 14.025,12.1275 13.9775,11.6475 C13.9475,11.26 13.885,10.965 13.7925,10.7575 C13.7,10.55 13.56,10.3875 13.375,10.2675 C13.14,10.1275 12.8025,10.06 12.36,10.0675 L11.335,10.0675 L11.335,12.5975 L10.0575,12.5975 L10.0575,5.93 L12.99,5.93 C13.83,5.93 14.415,6.05 14.745,6.29 C14.9725,6.45 15.1475,6.6625 15.2725,6.925 C15.395,7.1875 15.4575,7.4775 15.4575,7.79 C15.4575,8.4225 15.3125,8.9125 15.025,9.26 C14.845,9.4675 14.6075,9.6225 14.315,9.73 C14.55,9.8225 14.725,9.9225 14.845,10.025 C14.965,10.1275 15.0725,10.28 15.17,10.48 C15.2425,10.64 15.295,10.7925 15.3275,10.94 C15.36,11.0875 15.385,11.3025 15.405,11.59 C15.44,12.07 15.49,12.4075 15.55,12.6 L14.1125,12.6 L14.1125,12.5975 Z" id="Shape" fill="#3476FE"></path>
                    <path d="M14.05,7.96 C14.05,8.3275 13.955,8.5825 13.7625,8.73 C13.6375,8.83 13.4225,8.88 13.125,8.88 L11.335,8.88 L11.335,7.12 L13.125,7.12 C13.3525,7.12 13.5175,7.14 13.62,7.18 C13.905,7.295 14.05,7.5525 14.05,7.96 L14.05,7.96 Z" id="Path" fill="#5088fe"></path>
                </g>
            </g>
        </g>
    </g>
</svg>
