<?xml version="1.0" encoding="UTF-8"?>
<svg width="10px" height="10px" viewBox="0 0 10 10" version="1.1" xmlns="http://www.w3.org/2000/svg" xmlns:xlink="http://www.w3.org/1999/xlink">
    <!-- Generator: Sketch 63 (92445) - https://sketch.com -->
    <title>打勾</title>
    <desc>Created with Sketch.</desc>
    <g id="Page-1" stroke="none" stroke-width="1" fill="none" fill-rule="evenodd">
        <g id="1.0-待登录" transform="translate(-38.000000, -506.000000)" fill-rule="nonzero">
            <g id="用户协议" transform="translate(38.000000, 501.000000)">
                <g id="打勾" transform="translate(0.000000, 5.000000)">
                    <rect id="Rectangle" fill="#000000" opacity="0" x="0" y="0" width="10" height="10"></rect>
                    <path d="M9.28570312,0 L0.714296875,0 C0.319801604,0 0,0.319801604 0,0.714296875 L0,9.28570312 C0,9.6801984 0.319801604,10 0.714296875,10 L9.28570312,10 C9.6801984,10 10,9.6801984 10,9.28570312 L10,0.714296875 C10,0.319801604 9.6801984,0 9.28570312,0 Z M8.45106445,3.28871094 L4.52033203,7.33095703 C4.47091769,7.38215156 4.40991016,7.42070413 4.34246094,7.44335938 C4.17630322,7.5142738 3.98388109,7.47948169 3.85307617,7.35487305 L1.56123047,5.17351563 C1.38303874,5.000404 1.37743837,4.71610047 1.5486744,4.53610561 C1.71991043,4.35611076 2.00413973,4.34753334 2.18591797,4.516875 L4.16290039,6.39832031 L7.80157227,2.656875 C7.93024741,2.52457167 8.12631265,2.48354046 8.29724163,2.55314466 C8.46817062,2.62274885 8.57979735,2.78907568 8.5794442,2.97363281 C8.57966258,3.09141691 8.53359608,3.20457181 8.45117188,3.28871094 L8.45106445,3.28871094 Z" id="Shape" fill="#909399"></path>
                </g>
            </g>
        </g>
    </g>
</svg>